<?xml version="1.0" encoding="UTF-8"?>
<svg id="Layer_1" xmlns="http://www.w3.org/2000/svg" version="1.1" viewBox="0 0 803 255">
  <!-- Generator: Adobe Illustrator 29.4.0, SVG Export Plug-In . SVG Version: 2.1.0 Build 152)  -->
  <path d="M57.5,130c3.98.04,6.43-3.68,9.31-5.44,24.76-15.15,60.99-5.05,75.21,19.8l5.97,12.14c2.32-10.32.16-21.49,1.25-32,.55-1.1,3.73-1.42,4.99-1.51,10-.77,21.19.42,31.29.24,4.4,1.34,1.83,8.25,2.09,11.41.52,6.44,6.51-2.16,8.13-3.62,12.66-11.38,26.12-13.7,42.37-8.88,3.16.94,7.15,3.85,8.95,5.11,0,0-1.08,2.12-1.66,3.39-1.74,3.79-3.29,7.7-5.01,11.49-.57,1.27-1.13,4.36-1.13,4.36.74-1.22,2.13-2.1,2.94-3.05,4.45-5.19,9.29-10.45,15.14-14.36,28.72-19.23,75.95-10.9,90.27,22.57.26.6,2.4,4.35,2.45,3.88.36-3.27-.74-30.63,1.06-31.92,11.69-1.28,23.73-.39,35.53-.49,4.67,1.04-.06,9.16,4.61,10.22,4.95-4.07,10.42-8.53,16.48-10.85,13.66-5.25,31.43-2.43,44.12,4.42,11.78,6.36,18.94,18.03,19.67,31.33,1.34,24.57-1.07,50.35,0,75.05.3.75-.7,2.72-1.28,2.72h-36.5l-.75-.75v-66c0-10.09-10.84-19.42-20.75-19.29-11.39.14-21.74,10.08-22.75,21.3-1.72,19.25.86,64.74-.22,64.74h-38.04c-.71-.44-.69-1-.78-1.72-.68-5.78.12-14.72.02-19.02-.03-1.19,0-3.71-.26-4.1-.47.09-4.46,4.68-5.23,5.59-21.67,25.65-66.83,28.23-92.69,7.66-19.83-15.77-24.76-36.78-20.79-61.14.29-1.79,1.31-4.47,1.47-5.77-1.16-.12-2.22-.54-2.83-.59-1.7-.13-3.07-.45-4.38-.95-19.28-7.36-36.31.28-37.81,21.77-1.26,18.14.96,37.75.05,56.05l-.28,1.22c-.14.22-1.36,1-1.5,1h-36.5l-.75-.75v-32.5c0-.58-1.14-2.32-1.01-3.25-.55-.43-3.43,7.47-3.89,8.35-5.61,10.82-13.56,17.91-23.86,24.14-2.58,1.56-5.07,2.9-8.22,3.78-15.46,4.26-34.04,2.95-47.19-6.84-1.24-.92-5.81-5.91-7.07-5.93-1.81,2.36.59,11.52-2.09,12.42-8.97-.02-17.97.3-26.94.1-.88-.02-1.68-.4-2.48-.42-2.09-.06-4.84,1.28-6.99-.62l-.68-187.65c.33-1,1.73-1.23,2.66-1.34,10.37-1.2,22.92.93,33.54-.02.73-.32,2.72,1.47,2.72,1.78v82.75ZM286.36,144.61c-.53.11-5.4,2.12-6.04,2.46-3.99,2.09-8.92,8.61-8.34,13.2.07.53-.02,1.15.49,1.51l41.31-.25c.66-5.21-4.2-11.96-8.61-14.46-4.73-2.68-13.51-3.55-18.81-2.47ZM77.87,151.12c-19.29,3.27-27.11,28.21-16.08,43.34,2.81,3.85,9.74,9.32,14.5,10,17.96,2.57,31.89-6.04,33.22-24.69,1.28-17.9-13.95-31.65-31.65-28.65ZM349.88,183.12c-1.25-.97-2.69.02-4.13-.08-23.83-1.58-48.08.06-72.01-.56-2.04.24-3.35,1.04-3.27,3.24.04,1.13,1.35,6.56,1.79,7.77,2.67,7.45,11.82,12.92,19.48,13.52,9.53.75,16.09-.28,23.74-5.8,2.18-1.58,5.48-5.75,7.78-5.77l26.25,13.05c.4-1.48.89-2.64,1.03-4.23.41-4.79.38-13.23,0-18.04-.08-1.07-.24-2.12-.64-3.11Z"/>
  <path d="M698.32,149.83c8.75-8.66,16.99-17.87,26.14-26.11,2.09-.02,4.21-.61,6.27-.73,10.7-.65,26.92-.78,37.54,0,1.54.11,3.14.2,4.51.99l-.03,2.04-50.26,50.74,56.77,57.76c.42.97-1.76,1.78-2.49,1.53l-46.15-.41-43.88-43.61c-.9.73-1.13,1.63-1.26,2.73-1.38,11.91,1.22,26.48.04,38.54-.16,1.66-.26,2.65-2.26,2.74-10.82-.78-22.88.95-33.55,0-1.11-.1-2.18-.12-2.98-1.02l-.27-184.28c.17-1.84.61-4,2.75-4.25,10.33-1.2,22.97.98,33.55,0l2.46,1.54.29,110.71,1.22,2.27c3.71-3.87,7.77-7.4,11.57-11.16Z"/>
  <path d="M523.25,236c-.17-.05-.88-.78-.99-1.01v-110.48c.67-1.01,1.29-1.38,2.47-1.54,6.34-.83,17.23-.08,24.05,0,1.08.01,2.07.53,3,.54,2.18.03,5.15-1.19,7.39-.44,2.81.94-.13,9.08,2.58,10.89,3.22-2.44,6.15-5.24,9.59-7.39,9.3-5.81,19.38-8.28,30.37-6.54,20.89,3.3,39.51,14.8,41.31,37.69,1.83,23.18-.34,50.32-.04,74.04.01.81,1.07,4.23-.73,4.23h-36c-.14,0-1.36-.78-1.5-1l-.26-62.24c-1.19-5.17-1.18-9.77-4.28-14.22-9.62-13.8-29.71-9.33-37.14,4.28-.3.55-2.57,5.61-2.57,5.93v66.5l-.75.75h-36.5Z"/>
  <rect x="474.98" y="122.97" width="39.04" height="113.03"/>
  <circle cx="495.26" cy="75.97" r="23.12"/>
</svg>